ISO-10303-21;
HEADER;
/* Generated by software containing ST-Developer
 * from STEP Tools, Inc. (www.steptools.com) 
 */

FILE_DESCRIPTION(
/* description */ ('BACKLIGHT, LCD, SCRATCHPAD, TEKCREATIONS'),
/* implementation_level */ '2;1');

FILE_NAME(
/* name */ 
'UFCScratchpadBacklight - BACKLIGHT, LCD, SCRATCHPAD, TEKCREATIONS.ste
p',
/* time_stamp */ '2026-10-02T22:05:21-04:00',
/* author */ (''),
/* organization */ (''),
/* preprocessor_version */ 'ST-DEVELOPER v20.2',
/* originating_system */ 'Autodesk Translation Framework v15.15.0.0',
/* authorisation */ '');

FILE_SCHEMA (('AUTOMOTIVE_DESIGN { 1 0 10303 214 3 1 1 }'));
ENDSEC;

DATA;
#10=MECHANICAL_DESIGN_GEOMETRIC_PRESENTATION_REPRESENTATION('',(#16,#17,
#18,#19,#20,#21,#22,#23,#24,#25,#26,#27,#28,#29,#30,#31,#32),#516);
#11=SHAPE_REPRESENTATION_RELATIONSHIP('SRR','None',#523,#12);
#12=ADVANCED_BREP_SHAPE_REPRESENTATION('',(#13),#515);
#13=MANIFOLD_SOLID_BREP('Body1',#324);
#14=FACE_BOUND('',#67,.T.);
#15=FACE_BOUND('',#68,.T.);
#16=STYLED_ITEM('',(#533),#308);
#17=STYLED_ITEM('',(#533),#309);
#18=STYLED_ITEM('',(#533),#310);
#19=STYLED_ITEM('',(#533),#311);
#20=STYLED_ITEM('',(#533),#312);
#21=STYLED_ITEM('',(#533),#313);
#22=STYLED_ITEM('',(#533),#314);
#23=STYLED_ITEM('',(#533),#315);
#24=STYLED_ITEM('',(#533),#316);
#25=STYLED_ITEM('',(#533),#317);
#26=STYLED_ITEM('',(#534),#318);
#27=STYLED_ITEM('',(#534),#319);
#28=STYLED_ITEM('',(#534),#320);
#29=STYLED_ITEM('',(#534),#321);
#30=STYLED_ITEM('',(#532),#322);
#31=STYLED_ITEM('',(#532),#323);
#32=STYLED_ITEM('',(#532),#13);
#33=FACE_OUTER_BOUND('',#50,.T.);
#34=FACE_OUTER_BOUND('',#51,.T.);
#35=FACE_OUTER_BOUND('',#52,.T.);
#36=FACE_OUTER_BOUND('',#53,.T.);
#37=FACE_OUTER_BOUND('',#54,.T.);
#38=FACE_OUTER_BOUND('',#55,.T.);
#39=FACE_OUTER_BOUND('',#56,.T.);
#40=FACE_OUTER_BOUND('',#57,.T.);
#41=FACE_OUTER_BOUND('',#58,.T.);
#42=FACE_OUTER_BOUND('',#59,.T.);
#43=FACE_OUTER_BOUND('',#60,.T.);
#44=FACE_OUTER_BOUND('',#61,.T.);
#45=FACE_OUTER_BOUND('',#62,.T.);
#46=FACE_OUTER_BOUND('',#63,.T.);
#47=FACE_OUTER_BOUND('',#64,.T.);
#48=FACE_OUTER_BOUND('',#65,.T.);
#49=FACE_OUTER_BOUND('',#66,.T.);
#50=EDGE_LOOP('',(#212,#213,#214,#215));
#51=EDGE_LOOP('',(#216,#217,#218,#219));
#52=EDGE_LOOP('',(#220,#221,#222,#223));
#53=EDGE_LOOP('',(#224,#225,#226,#227));
#54=EDGE_LOOP('',(#228,#229,#230,#231));
#55=EDGE_LOOP('',(#232,#233,#234,#235));
#56=EDGE_LOOP('',(#236,#237,#238,#239));
#57=EDGE_LOOP('',(#240,#241,#242,#243));
#58=EDGE_LOOP('',(#244,#245,#246,#247));
#59=EDGE_LOOP('',(#248,#249,#250,#251));
#60=EDGE_LOOP('',(#252,#253,#254,#255));
#61=EDGE_LOOP('',(#256,#257,#258,#259));
#62=EDGE_LOOP('',(#260,#261,#262,#263,#264));
#63=EDGE_LOOP('',(#265,#266,#267,#268));
#64=EDGE_LOOP('',(#269,#270,#271,#272,#273));
#65=EDGE_LOOP('',(#274,#275,#276,#277));
#66=EDGE_LOOP('',(#278,#279,#280,#281));
#67=EDGE_LOOP('',(#282,#283,#284,#285));
#68=EDGE_LOOP('',(#286,#287,#288,#289));
#69=LINE('',#434,#108);
#70=LINE('',#436,#109);
#71=LINE('',#438,#110);
#72=LINE('',#439,#111);
#73=LINE('',#443,#112);
#74=LINE('',#445,#113);
#75=LINE('',#447,#114);
#76=LINE('',#448,#115);
#77=LINE('',#451,#116);
#78=LINE('',#453,#117);
#79=LINE('',#454,#118);
#80=LINE('',#457,#119);
#81=LINE('',#459,#120);
#82=LINE('',#460,#121);
#83=LINE('',#462,#122);
#84=LINE('',#463,#123);
#85=LINE('',#468,#124);
#86=LINE('',#470,#125);
#87=LINE('',#472,#126);
#88=LINE('',#473,#127);
#89=LINE('',#476,#128);
#90=LINE('',#478,#129);
#91=LINE('',#479,#130);
#92=LINE('',#482,#131);
#93=LINE('',#484,#132);
#94=LINE('',#485,#133);
#95=LINE('',#487,#134);
#96=LINE('',#488,#135);
#97=LINE('',#493,#136);
#98=LINE('',#495,#137);
#99=LINE('',#497,#138);
#100=LINE('',#498,#139);
#101=LINE('',#501,#140);
#102=LINE('',#502,#141);
#103=LINE('',#503,#142);
#104=LINE('',#506,#143);
#105=LINE('',#507,#144);
#106=LINE('',#509,#145);
#107=LINE('',#510,#146);
#108=VECTOR('',#359,10.);
#109=VECTOR('',#360,10.);
#110=VECTOR('',#361,10.);
#111=VECTOR('',#362,10.);
#112=VECTOR('',#365,10.);
#113=VECTOR('',#366,10.);
#114=VECTOR('',#367,10.);
#115=VECTOR('',#368,10.);
#116=VECTOR('',#371,10.);
#117=VECTOR('',#372,10.);
#118=VECTOR('',#373,10.);
#119=VECTOR('',#376,10.);
#120=VECTOR('',#377,10.);
#121=VECTOR('',#378,10.);
#122=VECTOR('',#381,10.);
#123=VECTOR('',#382,10.);
#124=VECTOR('',#387,10.);
#125=VECTOR('',#388,10.);
#126=VECTOR('',#389,10.);
#127=VECTOR('',#390,10.);
#128=VECTOR('',#393,10.);
#129=VECTOR('',#394,10.);
#130=VECTOR('',#395,10.);
#131=VECTOR('',#398,10.);
#132=VECTOR('',#399,10.);
#133=VECTOR('',#400,10.);
#134=VECTOR('',#403,10.);
#135=VECTOR('',#404,10.);
#136=VECTOR('',#409,10.);
#137=VECTOR('',#410,10.);
#138=VECTOR('',#411,10.);
#139=VECTOR('',#412,10.);
#140=VECTOR('',#415,10.);
#141=VECTOR('',#416,10.);
#142=VECTOR('',#417,10.);
#143=VECTOR('',#420,10.);
#144=VECTOR('',#421,10.);
#145=VECTOR('',#424,10.);
#146=VECTOR('',#425,10.);
#147=VERTEX_POINT('',#432);
#148=VERTEX_POINT('',#433);
#149=VERTEX_POINT('',#435);
#150=VERTEX_POINT('',#437);
#151=VERTEX_POINT('',#441);
#152=VERTEX_POINT('',#442);
#153=VERTEX_POINT('',#444);
#154=VERTEX_POINT('',#446);
#155=VERTEX_POINT('',#450);
#156=VERTEX_POINT('',#452);
#157=VERTEX_POINT('',#456);
#158=VERTEX_POINT('',#458);
#159=VERTEX_POINT('',#466);
#160=VERTEX_POINT('',#467);
#161=VERTEX_POINT('',#469);
#162=VERTEX_POINT('',#471);
#163=VERTEX_POINT('',#475);
#164=VERTEX_POINT('',#477);
#165=VERTEX_POINT('',#481);
#166=VERTEX_POINT('',#483);
#167=VERTEX_POINT('',#491);
#168=VERTEX_POINT('',#492);
#169=VERTEX_POINT('',#494);
#170=VERTEX_POINT('',#496);
#171=VERTEX_POINT('',#500);
#172=VERTEX_POINT('',#505);
#173=EDGE_CURVE('',#147,#148,#69,.T.);
#174=EDGE_CURVE('',#147,#149,#70,.T.);
#175=EDGE_CURVE('',#149,#150,#71,.T.);
#176=EDGE_CURVE('',#150,#148,#72,.T.);
#177=EDGE_CURVE('',#151,#152,#73,.T.);
#178=EDGE_CURVE('',#151,#153,#74,.T.);
#179=EDGE_CURVE('',#154,#153,#75,.T.);
#180=EDGE_CURVE('',#152,#154,#76,.T.);
#181=EDGE_CURVE('',#152,#155,#77,.T.);
#182=EDGE_CURVE('',#156,#154,#78,.T.);
#183=EDGE_CURVE('',#155,#156,#79,.T.);
#184=EDGE_CURVE('',#155,#157,#80,.T.);
#185=EDGE_CURVE('',#158,#156,#81,.T.);
#186=EDGE_CURVE('',#157,#158,#82,.T.);
#187=EDGE_CURVE('',#157,#151,#83,.T.);
#188=EDGE_CURVE('',#153,#158,#84,.T.);
#189=EDGE_CURVE('',#159,#160,#85,.T.);
#190=EDGE_CURVE('',#159,#161,#86,.T.);
#191=EDGE_CURVE('',#162,#161,#87,.T.);
#192=EDGE_CURVE('',#160,#162,#88,.T.);
#193=EDGE_CURVE('',#160,#163,#89,.T.);
#194=EDGE_CURVE('',#164,#162,#90,.T.);
#195=EDGE_CURVE('',#163,#164,#91,.T.);
#196=EDGE_CURVE('',#163,#165,#92,.T.);
#197=EDGE_CURVE('',#166,#164,#93,.T.);
#198=EDGE_CURVE('',#165,#166,#94,.T.);
#199=EDGE_CURVE('',#165,#159,#95,.T.);
#200=EDGE_CURVE('',#161,#166,#96,.T.);
#201=EDGE_CURVE('',#167,#168,#97,.T.);
#202=EDGE_CURVE('',#168,#169,#98,.T.);
#203=EDGE_CURVE('',#170,#169,#99,.T.);
#204=EDGE_CURVE('',#167,#170,#100,.T.);
#205=EDGE_CURVE('',#171,#167,#101,.T.);
#206=EDGE_CURVE('',#148,#170,#102,.T.);
#207=EDGE_CURVE('',#171,#150,#103,.T.);
#208=EDGE_CURVE('',#172,#171,#104,.T.);
#209=EDGE_CURVE('',#172,#149,#105,.T.);
#210=EDGE_CURVE('',#168,#172,#106,.T.);
#211=EDGE_CURVE('',#169,#147,#107,.T.);
#212=ORIENTED_EDGE('',*,*,#173,.F.);
#213=ORIENTED_EDGE('',*,*,#174,.T.);
#214=ORIENTED_EDGE('',*,*,#175,.T.);
#215=ORIENTED_EDGE('',*,*,#176,.T.);
#216=ORIENTED_EDGE('',*,*,#177,.F.);
#217=ORIENTED_EDGE('',*,*,#178,.T.);
#218=ORIENTED_EDGE('',*,*,#179,.F.);
#219=ORIENTED_EDGE('',*,*,#180,.F.);
#220=ORIENTED_EDGE('',*,*,#181,.F.);
#221=ORIENTED_EDGE('',*,*,#180,.T.);
#222=ORIENTED_EDGE('',*,*,#182,.F.);
#223=ORIENTED_EDGE('',*,*,#183,.F.);
#224=ORIENTED_EDGE('',*,*,#184,.F.);
#225=ORIENTED_EDGE('',*,*,#183,.T.);
#226=ORIENTED_EDGE('',*,*,#185,.F.);
#227=ORIENTED_EDGE('',*,*,#186,.F.);
#228=ORIENTED_EDGE('',*,*,#187,.F.);
#229=ORIENTED_EDGE('',*,*,#186,.T.);
#230=ORIENTED_EDGE('',*,*,#188,.F.);
#231=ORIENTED_EDGE('',*,*,#178,.F.);
#232=ORIENTED_EDGE('',*,*,#188,.T.);
#233=ORIENTED_EDGE('',*,*,#185,.T.);
#234=ORIENTED_EDGE('',*,*,#182,.T.);
#235=ORIENTED_EDGE('',*,*,#179,.T.);
#236=ORIENTED_EDGE('',*,*,#189,.F.);
#237=ORIENTED_EDGE('',*,*,#190,.T.);
#238=ORIENTED_EDGE('',*,*,#191,.F.);
#239=ORIENTED_EDGE('',*,*,#192,.F.);
#240=ORIENTED_EDGE('',*,*,#193,.F.);
#241=ORIENTED_EDGE('',*,*,#192,.T.);
#242=ORIENTED_EDGE('',*,*,#194,.F.);
#243=ORIENTED_EDGE('',*,*,#195,.F.);
#244=ORIENTED_EDGE('',*,*,#196,.F.);
#245=ORIENTED_EDGE('',*,*,#195,.T.);
#246=ORIENTED_EDGE('',*,*,#197,.F.);
#247=ORIENTED_EDGE('',*,*,#198,.F.);
#248=ORIENTED_EDGE('',*,*,#199,.F.);
#249=ORIENTED_EDGE('',*,*,#198,.T.);
#250=ORIENTED_EDGE('',*,*,#200,.F.);
#251=ORIENTED_EDGE('',*,*,#190,.F.);
#252=ORIENTED_EDGE('',*,*,#200,.T.);
#253=ORIENTED_EDGE('',*,*,#197,.T.);
#254=ORIENTED_EDGE('',*,*,#194,.T.);
#255=ORIENTED_EDGE('',*,*,#191,.T.);
#256=ORIENTED_EDGE('',*,*,#201,.T.);
#257=ORIENTED_EDGE('',*,*,#202,.T.);
#258=ORIENTED_EDGE('',*,*,#203,.F.);
#259=ORIENTED_EDGE('',*,*,#204,.F.);
#260=ORIENTED_EDGE('',*,*,#205,.T.);
#261=ORIENTED_EDGE('',*,*,#204,.T.);
#262=ORIENTED_EDGE('',*,*,#206,.F.);
#263=ORIENTED_EDGE('',*,*,#176,.F.);
#264=ORIENTED_EDGE('',*,*,#207,.F.);
#265=ORIENTED_EDGE('',*,*,#208,.T.);
#266=ORIENTED_EDGE('',*,*,#207,.T.);
#267=ORIENTED_EDGE('',*,*,#175,.F.);
#268=ORIENTED_EDGE('',*,*,#209,.F.);
#269=ORIENTED_EDGE('',*,*,#210,.T.);
#270=ORIENTED_EDGE('',*,*,#209,.T.);
#271=ORIENTED_EDGE('',*,*,#174,.F.);
#272=ORIENTED_EDGE('',*,*,#211,.F.);
#273=ORIENTED_EDGE('',*,*,#202,.F.);
#274=ORIENTED_EDGE('',*,*,#173,.T.);
#275=ORIENTED_EDGE('',*,*,#206,.T.);
#276=ORIENTED_EDGE('',*,*,#203,.T.);
#277=ORIENTED_EDGE('',*,*,#211,.T.);
#278=ORIENTED_EDGE('',*,*,#210,.F.);
#279=ORIENTED_EDGE('',*,*,#201,.F.);
#280=ORIENTED_EDGE('',*,*,#205,.F.);
#281=ORIENTED_EDGE('',*,*,#208,.F.);
#282=ORIENTED_EDGE('',*,*,#177,.T.);
#283=ORIENTED_EDGE('',*,*,#181,.T.);
#284=ORIENTED_EDGE('',*,*,#184,.T.);
#285=ORIENTED_EDGE('',*,*,#187,.T.);
#286=ORIENTED_EDGE('',*,*,#189,.T.);
#287=ORIENTED_EDGE('',*,*,#193,.T.);
#288=ORIENTED_EDGE('',*,*,#196,.T.);
#289=ORIENTED_EDGE('',*,*,#199,.T.);
#290=PLANE('',#338);
#291=PLANE('',#339);
#292=PLANE('',#340);
#293=PLANE('',#341);
#294=PLANE('',#342);
#295=PLANE('',#343);
#296=PLANE('',#344);
#297=PLANE('',#345);
#298=PLANE('',#346);
#299=PLANE('',#347);
#300=PLANE('',#348);
#301=PLANE('',#349);
#302=PLANE('',#350);
#303=PLANE('',#351);
#304=PLANE('',#352);
#305=PLANE('',#353);
#306=PLANE('',#354);
#307=ADVANCED_FACE('',(#33),#290,.T.);
#308=ADVANCED_FACE('',(#34),#291,.T.);
#309=ADVANCED_FACE('',(#35),#292,.T.);
#310=ADVANCED_FACE('',(#36),#293,.T.);
#311=ADVANCED_FACE('',(#37),#294,.T.);
#312=ADVANCED_FACE('',(#38),#295,.T.);
#313=ADVANCED_FACE('',(#39),#296,.T.);
#314=ADVANCED_FACE('',(#40),#297,.T.);
#315=ADVANCED_FACE('',(#41),#298,.T.);
#316=ADVANCED_FACE('',(#42),#299,.T.);
#317=ADVANCED_FACE('',(#43),#300,.T.);
#318=ADVANCED_FACE('',(#44),#301,.T.);
#319=ADVANCED_FACE('',(#45),#302,.T.);
#320=ADVANCED_FACE('',(#46),#303,.T.);
#321=ADVANCED_FACE('',(#47),#304,.T.);
#322=ADVANCED_FACE('',(#48),#305,.T.);
#323=ADVANCED_FACE('',(#49,#14,#15),#306,.F.);
#324=CLOSED_SHELL('',(#307,#308,#309,#310,#311,#312,#313,#314,#315,#316,
#317,#318,#319,#320,#321,#322,#323));
#325=DERIVED_UNIT_ELEMENT(#327,1.);
#326=DERIVED_UNIT_ELEMENT(#518,-3.);
#327=(
MASS_UNIT()
NAMED_UNIT(*)
SI_UNIT(.KILO.,.GRAM.)
);
#328=DERIVED_UNIT((#325,#326));
#329=MEASURE_REPRESENTATION_ITEM('density measure',
POSITIVE_RATIO_MEASURE(0.06),#328);
#330=PROPERTY_DEFINITION_REPRESENTATION(#335,#332);
#331=PROPERTY_DEFINITION_REPRESENTATION(#336,#333);
#332=REPRESENTATION('material name',(#334),#515);
#333=REPRESENTATION('density',(#329),#515);
#334=DESCRIPTIVE_REPRESENTATION_ITEM('N/A','N/A');
#335=PROPERTY_DEFINITION('material property','material name',#525);
#336=PROPERTY_DEFINITION('material property','density of part',#525);
#337=AXIS2_PLACEMENT_3D('',#430,#355,#356);
#338=AXIS2_PLACEMENT_3D('',#431,#357,#358);
#339=AXIS2_PLACEMENT_3D('',#440,#363,#364);
#340=AXIS2_PLACEMENT_3D('',#449,#369,#370);
#341=AXIS2_PLACEMENT_3D('',#455,#374,#375);
#342=AXIS2_PLACEMENT_3D('',#461,#379,#380);
#343=AXIS2_PLACEMENT_3D('',#464,#383,#384);
#344=AXIS2_PLACEMENT_3D('',#465,#385,#386);
#345=AXIS2_PLACEMENT_3D('',#474,#391,#392);
#346=AXIS2_PLACEMENT_3D('',#480,#396,#397);
#347=AXIS2_PLACEMENT_3D('',#486,#401,#402);
#348=AXIS2_PLACEMENT_3D('',#489,#405,#406);
#349=AXIS2_PLACEMENT_3D('',#490,#407,#408);
#350=AXIS2_PLACEMENT_3D('',#499,#413,#414);
#351=AXIS2_PLACEMENT_3D('',#504,#418,#419);
#352=AXIS2_PLACEMENT_3D('',#508,#422,#423);
#353=AXIS2_PLACEMENT_3D('',#511,#426,#427);
#354=AXIS2_PLACEMENT_3D('',#512,#428,#429);
#355=DIRECTION('axis',(0.,0.,1.));
#356=DIRECTION('refdir',(1.,0.,0.));
#357=DIRECTION('center_axis',(0.,0.,1.));
#358=DIRECTION('ref_axis',(1.,0.,0.));
#359=DIRECTION('',(1.,0.,0.));
#360=DIRECTION('',(0.,-1.,0.));
#361=DIRECTION('',(1.,0.,0.));
#362=DIRECTION('',(0.,1.,0.));
#363=DIRECTION('center_axis',(1.,0.,0.));
#364=DIRECTION('ref_axis',(0.,-1.,0.));
#365=DIRECTION('',(0.,1.,0.));
#366=DIRECTION('',(0.,0.,-1.));
#367=DIRECTION('',(0.,-1.,0.));
#368=DIRECTION('',(0.,0.,-1.));
#369=DIRECTION('center_axis',(0.,1.,0.));
#370=DIRECTION('ref_axis',(1.,0.,0.));
#371=DIRECTION('',(-1.,0.,0.));
#372=DIRECTION('',(1.,0.,0.));
#373=DIRECTION('',(0.,0.,-1.));
#374=DIRECTION('center_axis',(-1.,0.,0.));
#375=DIRECTION('ref_axis',(0.,1.,0.));
#376=DIRECTION('',(0.,-1.,0.));
#377=DIRECTION('',(0.,1.,0.));
#378=DIRECTION('',(0.,0.,-1.));
#379=DIRECTION('center_axis',(0.,-1.,0.));
#380=DIRECTION('ref_axis',(-1.,0.,0.));
#381=DIRECTION('',(1.,0.,0.));
#382=DIRECTION('',(-1.,0.,0.));
#383=DIRECTION('center_axis',(0.,0.,-1.));
#384=DIRECTION('ref_axis',(-1.,0.,0.));
#385=DIRECTION('center_axis',(-1.,0.,0.));
#386=DIRECTION('ref_axis',(0.,1.,0.));
#387=DIRECTION('',(0.,-1.,0.));
#388=DIRECTION('',(0.,0.,-1.));
#389=DIRECTION('',(0.,1.,0.));
#390=DIRECTION('',(0.,0.,-1.));
#391=DIRECTION('center_axis',(0.,-1.,0.));
#392=DIRECTION('ref_axis',(-1.,0.,0.));
#393=DIRECTION('',(1.,0.,0.));
#394=DIRECTION('',(-1.,0.,0.));
#395=DIRECTION('',(0.,0.,-1.));
#396=DIRECTION('center_axis',(1.,0.,0.));
#397=DIRECTION('ref_axis',(0.,-1.,0.));
#398=DIRECTION('',(0.,1.,0.));
#399=DIRECTION('',(0.,-1.,0.));
#400=DIRECTION('',(0.,0.,-1.));
#401=DIRECTION('center_axis',(0.,1.,0.));
#402=DIRECTION('ref_axis',(1.,0.,0.));
#403=DIRECTION('',(-1.,0.,0.));
#404=DIRECTION('',(1.,0.,0.));
#405=DIRECTION('center_axis',(0.,0.,-1.));
#406=DIRECTION('ref_axis',(-1.,0.,0.));
#407=DIRECTION('center_axis',(0.,1.,0.));
#408=DIRECTION('ref_axis',(-1.,0.,0.));
#409=DIRECTION('',(-1.,0.,0.));
#410=DIRECTION('',(0.,0.,1.));
#411=DIRECTION('',(-1.,0.,0.));
#412=DIRECTION('',(0.,0.,1.));
#413=DIRECTION('center_axis',(1.,0.,0.));
#414=DIRECTION('ref_axis',(0.,1.,0.));
#415=DIRECTION('',(0.,1.,0.));
#416=DIRECTION('',(0.,1.,0.));
#417=DIRECTION('',(0.,0.,1.));
#418=DIRECTION('center_axis',(0.,-1.,0.));
#419=DIRECTION('ref_axis',(1.,0.,0.));
#420=DIRECTION('',(1.,0.,0.));
#421=DIRECTION('',(0.,0.,1.));
#422=DIRECTION('center_axis',(-1.,0.,0.));
#423=DIRECTION('ref_axis',(0.,-1.,0.));
#424=DIRECTION('',(0.,-1.,0.));
#425=DIRECTION('',(0.,-1.,0.));
#426=DIRECTION('center_axis',(0.,0.,1.));
#427=DIRECTION('ref_axis',(1.,0.,0.));
#428=DIRECTION('center_axis',(0.,0.,1.));
#429=DIRECTION('ref_axis',(1.,0.,0.));
#430=CARTESIAN_POINT('',(0.,0.,0.));
#431=CARTESIAN_POINT('Origin',(28.5,9.5,2.8));
#432=CARTESIAN_POINT('',(0.,7.,2.8));
#433=CARTESIAN_POINT('',(57.,7.,2.8));
#434=CARTESIAN_POINT('',(14.25,7.,2.8));
#435=CARTESIAN_POINT('',(0.,0.,2.8));
#436=CARTESIAN_POINT('',(0.,7.,2.8));
#437=CARTESIAN_POINT('',(57.,0.,2.8));
#438=CARTESIAN_POINT('',(0.,0.,2.8));
#439=CARTESIAN_POINT('',(57.,0.,2.8));
#440=CARTESIAN_POINT('Origin',(24.5,1.6,0.));
#441=CARTESIAN_POINT('',(24.5,1.,0.));
#442=CARTESIAN_POINT('',(24.5,1.6,0.));
#443=CARTESIAN_POINT('',(24.5,5.55,0.));
#444=CARTESIAN_POINT('',(24.5,1.,-6.));
#445=CARTESIAN_POINT('',(24.5,1.,0.));
#446=CARTESIAN_POINT('',(24.5,1.6,-6.));
#447=CARTESIAN_POINT('',(24.5,1.,-6.));
#448=CARTESIAN_POINT('',(24.5,1.6,0.));
#449=CARTESIAN_POINT('Origin',(22.5,1.6,0.));
#450=CARTESIAN_POINT('',(22.5,1.6,0.));
#451=CARTESIAN_POINT('',(25.5,1.6,0.));
#452=CARTESIAN_POINT('',(22.5,1.6,-6.));
#453=CARTESIAN_POINT('',(24.5,1.6,-6.));
#454=CARTESIAN_POINT('',(22.5,1.6,0.));
#455=CARTESIAN_POINT('Origin',(22.5,1.,0.));
#456=CARTESIAN_POINT('',(22.5,1.,0.));
#457=CARTESIAN_POINT('',(22.5,5.25,0.));
#458=CARTESIAN_POINT('',(22.5,1.,-6.));
#459=CARTESIAN_POINT('',(22.5,1.6,-6.));
#460=CARTESIAN_POINT('',(22.5,1.,0.));
#461=CARTESIAN_POINT('Origin',(24.5,1.,0.));
#462=CARTESIAN_POINT('',(26.5,1.,0.));
#463=CARTESIAN_POINT('',(22.5,1.,-6.));
#464=CARTESIAN_POINT('Origin',(23.5,1.3,-6.));
#465=CARTESIAN_POINT('Origin',(32.5,1.,0.));
#466=CARTESIAN_POINT('',(32.5,1.6,0.));
#467=CARTESIAN_POINT('',(32.5,1.,0.));
#468=CARTESIAN_POINT('',(32.5,5.25,0.));
#469=CARTESIAN_POINT('',(32.5,1.6,-6.));
#470=CARTESIAN_POINT('',(32.5,1.6,0.));
#471=CARTESIAN_POINT('',(32.5,1.,-6.));
#472=CARTESIAN_POINT('',(32.5,1.6,-6.));
#473=CARTESIAN_POINT('',(32.5,1.,0.));
#474=CARTESIAN_POINT('Origin',(34.5,1.,0.));
#475=CARTESIAN_POINT('',(34.5,1.,0.));
#476=CARTESIAN_POINT('',(31.5,1.,0.));
#477=CARTESIAN_POINT('',(34.5,1.,-6.));
#478=CARTESIAN_POINT('',(32.5,1.,-6.));
#479=CARTESIAN_POINT('',(34.5,1.,0.));
#480=CARTESIAN_POINT('Origin',(34.5,1.6,0.));
#481=CARTESIAN_POINT('',(34.5,1.6,0.));
#482=CARTESIAN_POINT('',(34.5,5.55,0.));
#483=CARTESIAN_POINT('',(34.5,1.6,-6.));
#484=CARTESIAN_POINT('',(34.5,1.,-6.));
#485=CARTESIAN_POINT('',(34.5,1.6,0.));
#486=CARTESIAN_POINT('Origin',(32.5,1.6,0.));
#487=CARTESIAN_POINT('',(30.5,1.6,0.));
#488=CARTESIAN_POINT('',(34.5,1.6,-6.));
#489=CARTESIAN_POINT('Origin',(33.5,1.3,-6.));
#490=CARTESIAN_POINT('Origin',(57.,19.,0.));
#491=CARTESIAN_POINT('',(57.,19.,0.));
#492=CARTESIAN_POINT('',(0.,19.,0.));
#493=CARTESIAN_POINT('',(57.,19.,0.));
#494=CARTESIAN_POINT('',(0.,19.,2.8));
#495=CARTESIAN_POINT('',(0.,19.,0.));
#496=CARTESIAN_POINT('',(57.,19.,2.8));
#497=CARTESIAN_POINT('',(57.,19.,2.8));
#498=CARTESIAN_POINT('',(57.,19.,0.));
#499=CARTESIAN_POINT('Origin',(57.,0.,0.));
#500=CARTESIAN_POINT('',(57.,0.,0.));
#501=CARTESIAN_POINT('',(57.,0.,0.));
#502=CARTESIAN_POINT('',(57.,0.,2.8));
#503=CARTESIAN_POINT('',(57.,0.,0.));
#504=CARTESIAN_POINT('Origin',(0.,0.,0.));
#505=CARTESIAN_POINT('',(0.,0.,0.));
#506=CARTESIAN_POINT('',(0.,0.,0.));
#507=CARTESIAN_POINT('',(0.,0.,0.));
#508=CARTESIAN_POINT('Origin',(0.,19.,0.));
#509=CARTESIAN_POINT('',(0.,7.,0.));
#510=CARTESIAN_POINT('',(0.,7.,2.8));
#511=CARTESIAN_POINT('Origin',(28.5,9.5,2.8));
#512=CARTESIAN_POINT('Origin',(28.5,9.5,0.));
#513=UNCERTAINTY_MEASURE_WITH_UNIT(LENGTH_MEASURE(0.01),#517,
'DISTANCE_ACCURACY_VALUE',
'Maximum model space distance between geometric entities at asserted c
onnectivities');
#514=UNCERTAINTY_MEASURE_WITH_UNIT(LENGTH_MEASURE(0.01),#517,
'DISTANCE_ACCURACY_VALUE',
'Maximum model space distance between geometric entities at asserted c
onnectivities');
#515=(
GEOMETRIC_REPRESENTATION_CONTEXT(3)
GLOBAL_UNCERTAINTY_ASSIGNED_CONTEXT((#513))
GLOBAL_UNIT_ASSIGNED_CONTEXT((#517,#519,#520))
REPRESENTATION_CONTEXT('','3D')
);
#516=(
GEOMETRIC_REPRESENTATION_CONTEXT(3)
GLOBAL_UNCERTAINTY_ASSIGNED_CONTEXT((#514))
GLOBAL_UNIT_ASSIGNED_CONTEXT((#517,#519,#520))
REPRESENTATION_CONTEXT('','3D')
);
#517=(
LENGTH_UNIT()
NAMED_UNIT(*)
SI_UNIT(.MILLI.,.METRE.)
);
#518=(
LENGTH_UNIT()
NAMED_UNIT(*)
SI_UNIT($,.METRE.)
);
#519=(
NAMED_UNIT(*)
PLANE_ANGLE_UNIT()
SI_UNIT($,.RADIAN.)
);
#520=(
NAMED_UNIT(*)
SI_UNIT($,.STERADIAN.)
SOLID_ANGLE_UNIT()
);
#521=SHAPE_DEFINITION_REPRESENTATION(#522,#523);
#522=PRODUCT_DEFINITION_SHAPE('',$,#525);
#523=SHAPE_REPRESENTATION('',(#337),#515);
#524=PRODUCT_DEFINITION_CONTEXT('part definition',#529,'design');
#525=PRODUCT_DEFINITION('UFCScratchpadBacklight',
'UFCScratchpadBacklight - BACKLIGHT, LCD, SCRATCHPAD, TEKCREATIONS',#526,
#524);
#526=PRODUCT_DEFINITION_FORMATION('',$,#531);
#527=PRODUCT_RELATED_PRODUCT_CATEGORY(
'UFCScratchpadBacklight - BACKLIGHT, LCD, SCRATCHPAD, TEKCREATIONS',
'UFCScratchpadBacklight - BACKLIGHT, LCD, SCRATCHPAD, TEKCREATIONS',(#531));
#528=APPLICATION_PROTOCOL_DEFINITION('international standard',
'automotive_design',2009,#529);
#529=APPLICATION_CONTEXT(
'Core Data for Automotive Mechanical Design Process');
#530=PRODUCT_CONTEXT('part definition',#529,'mechanical');
#531=PRODUCT('UFCScratchpadBacklight',
'UFCScratchpadBacklight - BACKLIGHT, LCD, SCRATCHPAD, TEKCREATIONS',
'BACKLIGHT, LCD, SCRATCHPAD, TEKCREATIONS',(#530));
#532=PRESENTATION_STYLE_ASSIGNMENT((#535));
#533=PRESENTATION_STYLE_ASSIGNMENT((#536));
#534=PRESENTATION_STYLE_ASSIGNMENT((#537));
#535=SURFACE_STYLE_USAGE(.BOTH.,#538);
#536=SURFACE_STYLE_USAGE(.BOTH.,#539);
#537=SURFACE_STYLE_USAGE(.BOTH.,#540);
#538=SURFACE_SIDE_STYLE('',(#541));
#539=SURFACE_SIDE_STYLE('',(#542));
#540=SURFACE_SIDE_STYLE('',(#543));
#541=SURFACE_STYLE_FILL_AREA(#544);
#542=SURFACE_STYLE_FILL_AREA(#545);
#543=SURFACE_STYLE_FILL_AREA(#546);
#544=FILL_AREA_STYLE('ABS (White)',(#547));
#545=FILL_AREA_STYLE('Nickel - Satin',(#548));
#546=FILL_AREA_STYLE('Plastic - Matte (Black)',(#549));
#547=FILL_AREA_STYLE_COLOUR('ABS (White)',#550);
#548=FILL_AREA_STYLE_COLOUR('Nickel - Satin',#551);
#549=FILL_AREA_STYLE_COLOUR('Plastic - Matte (Black)',#552);
#550=COLOUR_RGB('ABS (White)',0.964705882352941,0.964705882352941,0.952941176470588);
#551=COLOUR_RGB('Nickel - Satin',0.819607843137255,0.8,0.752941176470588);
#552=COLOUR_RGB('Plastic - Matte (Black)',0.0980392156862745,0.0980392156862745,
0.0980392156862745);
ENDSEC;
END-ISO-10303-21;
